<?xml version="1.0" encoding="utf-8"?>
<!-- Generator: Adobe Illustrator 21.0.0, SVG Export Plug-In . SVG Version: 6.00 Build 0)  -->
<svg version="1.1" id="Layer_1" xmlns="http://www.w3.org/2000/svg" xmlns:xlink="http://www.w3.org/1999/xlink" x="0px" y="0px"
	 viewBox="0 0 376.2 320" style="enable-background:new 0 0 376.2 320;" xml:space="preserve">
<style type="text/css">
	.st0{fill:#A05C94;}
	.st1{opacity:0.7;fill-rule:evenodd;clip-rule:evenodd;fill:#73467A;}
	.st2{fill-rule:evenodd;clip-rule:evenodd;fill:#04FF6F;}
	.st3{fill-rule:evenodd;clip-rule:evenodd;fill:#FFFFFF;}
	.st4{fill-rule:evenodd;clip-rule:evenodd;fill:#FFDE00;}
	.st5{fill:#9B5C8F;}
	.st6{fill:#FFFFFF;}
	.st7{fill:#5D88B3;stroke:#FFFFFF;stroke-width:16;stroke-miterlimit:10;}
	.st8{font-family:'ChunkFive';}
	.st9{font-size:76.0148px;}
	.st10{fill:#5D88B3;}
	.st11{font-size:79.7686px;}
</style>
<rect class="st0" width="376.2" height="320"/>
<polygon class="st1" points="0.2,200 114,93.1 80.7,32.4 0.2,118 "/>
<path class="st1" d="M121.2,164.7L95,111.3L59.5,105c-3.4,0-5,2.3-5,2.3L0,161.7v151.9l124.8-134.8L121.2,164.7z"/>
<path class="st1" d="M0.6,320h35.6h202.1c0,0,25.1-23.9,38.7-36.1c-25.8,1.3-159.9,7.3-163.7-7.7c-7-28.2-1.1-77.5-1.1-77.5L0.6,320
	z"/>
<path class="st1" d="M280.6,182.2L245.7,217c0,0-7.9-14.5-20.3-20.3c-13.4-6.3-15.9-8.1-15.9-8.1l35.6-35.6L280.6,182.2z"/>
<polygon class="st1" points="335.9,117 282.9,170 309.2,115.9 "/>
<polygon class="st1" points="275.6,171.9 300,112.5 331.8,106.6 345.3,93.1 284.7,32.4 210.8,106.3 "/>
<g>
	<path class="st2" d="M284.8,93.1c0-20.3,0-40.3,0-60.5c20.2,0,40.2,0,60.5,0c0,20.1,0,40.2,0,60.5
		C325.3,93.1,305.2,93.1,284.8,93.1z"/>
	<path class="st3" d="M195.9,83c-19-0.2-34.3-15.6-34.1-34.4c0.2-18.9,15.7-34.1,34.6-33.9c18.8,0.2,33.9,15.7,33.8,34.4
		C230.1,67.9,214.6,83.2,195.9,83z"/>
	<path class="st4" d="M47.4,93.1C58.5,72.8,69.4,53,80.7,32.4c11.2,20.4,22.2,40.4,33.3,60.7C91.7,93.1,69.8,93.1,47.4,93.1z"/>
	<path class="st3" d="M330.9,104.9c-10.6,0-21.1,0.1-31.7-0.1c-2.4,0-3.7,0.7-4.7,2.9c-4.5,9.9-9.1,19.7-13.6,29.6
		c-2.5,5.4-4.9,10.9-7.5,16.6c-1-1.2-1.9-2.1-2.6-3c-10-11.9-20-23.7-30-35.6c-8.3-9.9-18.5-16.5-31.4-18
		c-7.2-0.8-14.6-0.6-21.9-0.4c-14.2,0.3-25.9,6.2-35,17c-10.7,12.6-21.3,25.3-31.9,38c-0.6,0.7-0.8,1.6-1.2,2.4
		c-1.2-1.4-1.4-1.9-1.7-2.5c-6.7-14.7-13.4-29.3-20.1-44c-0.9-2.1-2.2-3-4.6-2.9C82.6,105,72,104.9,61.5,105c-1.2,0-2.4,0.1-3.6,0.4
		c-4.3,1.1-6,5.5-3.7,9.4c1.6,2.5,4,3.3,6.8,3.3c5.5,0,11,0.2,16.4,0c2.5-0.1,3.6,0.9,4.4,3c2.2,5.2,4.5,10.4,6.8,15.6
		c5.8,13.1,11.5,26.2,17.3,39.2c4.1,9.3,12.7,10.5,19.2,2.7c1.1-1.3,2.2-2.7,3.3-4c4.8-5.7,9.6-11.4,14.9-17.6
		c2.3,15,6.8,44.3,6.8,44.3l91.9,0c0,0,4.5-29.5,6.9-44.5c1.4,1.7,2.3,2.7,3.2,3.8c5.4,6.4,10.7,12.8,16.1,19.1
		c5.3,6.1,14,5,17.6-2.3c0.4-0.8,0.7-1.7,1.1-2.5c8-18.1,16-36.2,23.8-54.3c0.8-1.9,1.7-2.6,3.8-2.6c5.4,0.2,10.8,0,16.1,0.1
		c5.5,0,8.7-2.4,8.8-6.7C339.6,107.3,336.5,105,330.9,104.9z"/>
</g>
<g>
	<path class="st5" d="M191.7,284.6h-62.5c-10.5,0-19.1-8.6-19.1-19.1v-51.2c0-5,1.9-9.8,5.5-13.5c3.6-3.6,8.4-5.6,13.5-5.6h134.1
		c10.5,0,19.1,8.6,19.1,19.1v51.2c0,10.5-8.6,19.1-19.1,19.1h-42.5l8.5,20.9L191.7,284.6z"/>
	<path class="st6" d="M263.2,199c8.5,0,15.4,6.9,15.4,15.4v51.2c0,8.5-6.9,15.4-15.4,15.4h-48.1l6.6,16.2l-29-16.2h-63.5
		c-8.5,0-15.4-6.9-15.4-15.4v-51.2c-0.1-8.4,6.8-15.4,15.3-15.4H263.2 M263.2,191.5H129.1c-6.1,0-11.9,2.4-16.2,6.7
		c-4.3,4.3-6.7,10.1-6.6,16.2v51.1c0,12.6,10.3,22.9,22.9,22.9h61.6l27.3,15.2l18.7,10.4l-8.1-19.8l-2.4-5.8h36.9
		c12.6,0,22.9-10.3,22.9-22.9v-51.2C286.1,201.7,275.8,191.5,263.2,191.5L263.2,191.5z"/>
</g>
<g>
	<text transform="matrix(1 0 0 1 152.0262 265.335)" class="st7 st8 st9">a3</text>
	<text transform="matrix(1 0 0 1 149.888 267.2119)" class="st10 st8 st11">a3</text>
</g>
</svg>
